<svg xmlns="http://www.w3.org/2000/svg" viewBox="0 0 500 500"><g id="freepik--Floor--inject-44"><path d="M467.38,456.18c0,.15-97.33.26-217.37.26s-217.39-.11-217.39-.26,97.31-.26,217.39-.26S467.38,456,467.38,456.18Z" style="fill:#263238"></path></g><g id="freepik--Character--inject-44"><path d="M43,178.56s78.87,38.81,100.78,46.32c17.91,6.15,46.7,8.1,64.13,6.22a51.61,51.61,0,0,0,9.73-1.83c13.78-4.39,83.26-18.78,83.26-18.78L384,206l-1.86-11.31-95.33,5.78s-55.1,7.64-62.81,16.73c0,0-6.55,9.09-18.11,10.63S143.1,217,137.32,211.21s-7.32-8.48-23.89-12.33-53.94-30.06-53.94-30.06L41,178.07" style="fill:#B9AA87"></path><path d="M43,178.56s78.87,38.81,100.78,46.32c17.91,6.15,46.7,8.1,64.13,6.22a51.61,51.61,0,0,0,9.73-1.83c13.78-4.39,83.26-18.78,83.26-18.78L384,206l-.71-4.33-1.15-7-95.33,5.78s-55.1,7.64-62.81,16.73c0,0-6.55,9.09-18.11,10.63S143.1,217,137.32,211.21s-7.32-8.48-23.89-12.33-53.94-30.06-53.94-30.06L41,178.07" style="opacity:0.5"></path><path d="M365.45,149.13l-108.54.47a20.25,20.25,0,0,1-7.86-2.1c-3.77-1.78-11.76-6.65-14.2-8.15a2.89,2.89,0,0,0-2.06-.41c-.45.09-.8.3-.61.76.26.61,7,6.42,7,6.42l-12-3.79a2.39,2.39,0,0,0-2,.23c-.27.17-.47.4-.42.68.08.51,7.26,3.92,7.26,3.92l-9.11-1.56a1.61,1.61,0,0,0-1.89,1.25,2.26,2.26,0,0,0,0,.26c0,.85,13,5,13,5h-12a1.8,1.8,0,0,0-1.61,2.59c.68,1.35,18.74,1.82,18.92,3.84s-5.14,2.44-6.94,5.17a2.38,2.38,0,0,0,1.13,3.82c1.84-2.2,8.9-4,8.9-4l11,.58h0l102.77,14.64,15.83-10.06,6.09-11Z" style="fill:#ffbe9d"></path><path d="M338.73,148.77l-110.83,22a20.89,20.89,0,0,1-8.45-.58c-4.21-1.07-13.33-4.47-16.13-5.52a2.93,2.93,0,0,0-2.18,0c-.44.18-.76.46-.47.89s8.45,5.16,8.45,5.16l-13-1.48a2.54,2.54,0,0,0-2,.62.78.78,0,0,0-.3.79c.19.51,8.2,2.56,8.2,2.56l-9.62.22a1.66,1.66,0,0,0-1.68,1.65,2,2,0,0,0,0,.26c.22.86,14.33,2.56,14.33,2.56l-12.23,2.37a1.87,1.87,0,0,0-1.13,3c1,1.24,19.51-1.86,20.1.17s-4.77,3.51-6.07,6.66a2.49,2.49,0,0,0,1.91,3.69c1.45-2.62,8.31-5.85,8.31-5.85l11.32-1.58h0l107.92-5.42,14.19-13.42,4-12.49Z" style="fill:#ffbe9d"></path><path d="M299.17,156.47a6.1,6.1,0,0,1-.72.19l-2.08.47-7.65,1.6-25.31,5-25.31,5-7.66,1.54-2.09.4a4.82,4.82,0,0,1-.74.11,3.73,3.73,0,0,1,.72-.21l2.06-.5c1.8-.42,4.41-1,7.64-1.7,6.45-1.4,15.39-3.24,25.28-5.18l25.34-4.86,7.68-1.44,2.1-.37A3.36,3.36,0,0,1,299.17,156.47Z" style="fill:#eb996e"></path><path d="M371.57,98.42a5.55,5.55,0,0,1-3.72,4.41c-1.1.35-2.3.34-3.38.74s-2.1,1.45-1.86,2.58c.17.85.95,1.41,1.59,2s1.22,1.49.84,2.27-1.65.92-2.3,1.62a2.22,2.22,0,0,0,.14,2.76,9.68,9.68,0,0,0,2.34,1.87A3.9,3.9,0,0,1,367,119" style="fill:#263238"></path><path d="M411.05,116.05c3-6.18.89-13.94-3.64-19.09s-11.09-8.1-17.67-10c-.95-.28-2.12-.48-2.79.24a1.87,1.87,0,0,0,.15,2.38,5.38,5.38,0,0,0,2.2,1.33,20.6,20.6,0,0,0-8.57-2.4,5.42,5.42,0,0,0-3,.62,2.48,2.48,0,0,0-1.21,2.66,1.64,1.64,0,0,0,2.48.87,12.58,12.58,0,0,0-8.16,1.85c-1.73,1.09-3.29,3-2.9,5,.24,1.17,1.1,2.12,1.48,3.26.68,2.07-.36,4.27-1.17,6.31a19.64,19.64,0,0,0-1.47,10A11.6,11.6,0,0,0,372,127.3" style="fill:#263238"></path><path d="M398.41,96.34l-1-.35a19.6,19.6,0,0,0-24.62,13.55L360.27,151l21.89,18.52,6.7-17.39s10.51,2.13,14.31-7.76c1.83-4.78,4.81-14.93,7.4-24.15A19.73,19.73,0,0,0,398.41,96.34Z" style="fill:#ffbe9d"></path><path d="M388.93,152a24.61,24.61,0,0,1-11.59-8.47s.41,8.28,10.66,11.05Z" style="fill:#eb996e"></path><path d="M387.41,102c-.8-1.8-1.8-5.71-3.18-7.12s-3.63-1-5.54-.44a6.4,6.4,0,0,0-4.28,4c-2.67,7.16-3,13.93-5.05,21a2.69,2.69,0,0,0-.13,1.43c.36,1.2,1.68,1.63,2.92,1.82,3.05.47,4.63-1.75,6.09-4.42a31.78,31.78,0,0,0,1.1-5,13.53,13.53,0,0,1,7.59-11Z" style="fill:#263238"></path><path d="M374.51,115.28c-.14-.14-6.08-4.55-8.37,2.33s5.07,7.76,5.15,7.56S374.51,115.28,374.51,115.28Z" style="fill:#ffbe9d"></path><path d="M370.06,121.87s-.14,0-.38.07a1.29,1.29,0,0,1-.9-.28,3.13,3.13,0,0,1-.48-3.12,4.11,4.11,0,0,1,.91-1.6,1.45,1.45,0,0,1,1.2-.62.64.64,0,0,1,.6.57c0,.22-.06.34,0,.36s.19-.06.23-.36a.82.82,0,0,0-.13-.52,1,1,0,0,0-.6-.4,1.77,1.77,0,0,0-1.61.65,4.34,4.34,0,0,0-1.06,1.77c-.41,1.4-.14,2.94.76,3.56a1.39,1.39,0,0,0,1.16.18C370,122,370.08,121.89,370.06,121.87Z" style="fill:#eb996e"></path><path d="M384.74,103.47c3.41-2.29,6.9-1.12,9.22.25s4.3,3.32,6.69,4.58,5.52,1.7,7.67.07a7.35,7.35,0,0,0,2.47-5.28,14.61,14.61,0,0,0-3.41-10.7c-.66-.76-1.66-1.51-2.58-1.11-1.14.5-1,2.15-.62,3.34,0,0-11.55-4.36-18.64-2S384.74,103.47,384.74,103.47Z" style="fill:#263238"></path><path d="M389.22,86.78c.07,0,.13.49.48,1.33a10.62,10.62,0,0,0,2.19,3.1,17.22,17.22,0,0,0,4.59,3.26,13.36,13.36,0,0,0,3.14,1.08c1.14.26,2.35.45,3.58.8a8.26,8.26,0,0,1,3.33,1.71,7.47,7.47,0,0,1,2,2.88,6.51,6.51,0,0,1,.39,3.14,6,6,0,0,1-4.17,4.89,4.23,4.23,0,0,1-1.06.16c-.24,0-.37,0-.37,0s.51-.06,1.36-.36a5.86,5.86,0,0,0,2.87-2.33,5.52,5.52,0,0,0,.87-2.39,6,6,0,0,0-.41-2.88,6.92,6.92,0,0,0-1.87-2.63A7.71,7.71,0,0,0,403,96.93c-1.18-.34-2.38-.53-3.54-.8A13.74,13.74,0,0,1,396.24,95a16.64,16.64,0,0,1-4.66-3.47,9.78,9.78,0,0,1-2.1-3.31,6,6,0,0,1-.24-1C389.21,86.91,389.2,86.78,389.22,86.78Z" style="fill:#455a64"></path><path d="M381.55,88.79c.06,0,.17.51.55,1.38a10.32,10.32,0,0,0,2.36,3.18,14.4,14.4,0,0,0,5.09,2.93A49.78,49.78,0,0,0,396.66,98a27.87,27.87,0,0,1,7.13,2.1,4.93,4.93,0,0,1,2.32,2.39,4.7,4.7,0,0,1,.14,2.9,5.69,5.69,0,0,1-2.5,3.24,5.36,5.36,0,0,1-1,.52c-.24.1-.37.13-.38.11s.47-.26,1.23-.82a5.69,5.69,0,0,0,2.21-3.15,4.12,4.12,0,0,0-.19-2.6,4.43,4.43,0,0,0-2.11-2.1,28.93,28.93,0,0,0-7-2,45.83,45.83,0,0,1-7.19-1.77,14.4,14.4,0,0,1-5.2-3.15,9.63,9.63,0,0,1-2.27-3.4,5.93,5.93,0,0,1-.3-1.08C381.54,88.93,381.53,88.8,381.55,88.79Z" style="fill:#455a64"></path><path d="M406.35,126.35c-.26.14-1.13-1.15-2.8-1.74s-3.18-.19-3.29-.46.27-.41.94-.61a4.48,4.48,0,0,1,2.73.12,4.29,4.29,0,0,1,2.13,1.63C406.43,125.87,406.48,126.29,406.35,126.35Z" style="fill:#263238"></path><path d="M390.43,121.47c-.27.13-1.13-1.15-2.8-1.74s-3.19-.19-3.29-.46c-.06-.12.26-.41.94-.61a4.51,4.51,0,0,1,2.72.11,4.39,4.39,0,0,1,2.14,1.64C390.51,121,390.55,121.41,390.43,121.47Z" style="fill:#263238"></path><path d="M392,133.07a11.5,11.5,0,0,1,2.87.47c.45.11.88.17,1.05-.1a2.28,2.28,0,0,0,.17-1.36c0-1.17-.07-2.4-.11-3.68-.1-5.24,0-9.48.19-9.48s.47,4.24.58,9.47c0,1.29,0,2.51,0,3.69a2.61,2.61,0,0,1-.37,1.74,1.14,1.14,0,0,1-.92.38,3.48,3.48,0,0,1-.76-.16A11.29,11.29,0,0,1,392,133.07Z" style="fill:#263238"></path><path d="M386.71,132.48c.28.08-.36,1.89.73,3.72s3.09,2.32,3,2.58-.55.2-1.37-.07a4.77,4.77,0,0,1-2.55-2.05,4.15,4.15,0,0,1-.5-3.08C386.23,132.8,386.59,132.42,386.71,132.48Z" style="fill:#263238"></path><path d="M393.13,112.19c-.33.39-1.92-.41-3.95-.87s-3.81-.49-3.93-1c-.05-.24.38-.56,1.17-.78a7,7,0,0,1,6,1.42C393,111.51,393.27,112,393.13,112.19Z" style="fill:#263238"></path><path d="M408,119c-.43.27-1.43-.53-2.81-1s-2.64-.65-2.76-1.14c-.05-.24.26-.55.9-.73a4.35,4.35,0,0,1,4.5,1.76C408.14,118.45,408.16,118.9,408,119Z" style="fill:#263238"></path><path d="M384.52,163.79c.52,2.74,1.26,21.81-.15,29.54-2.64,14.36-22.45,46-23.74,48.53-.76,1.48-17.17,39.05-17.17,39.05s-71.44-22.19-75-40.28c0,0,24.13-18,30.09-23.48,1.18-1.1,23.05-38.76,23.05-38.76l13.19-22.8s10.2-10,15.46-10h11.58Z" style="fill:#B9AA87"></path><path d="M268.44,240.63s8.41.66,31.9,13.83,29.68,17,29.68,17l-48.17-16.87S269.31,247.21,268.44,240.63Z" style="opacity:0.4"></path><path d="M349,145.63l-13.14,1.17-37.73,7.73,16.3,30.37,41.61-4s10.08-19.87,6.34-24.19S349,145.63,349,145.63Z" style="fill:#B9AA87"></path><polygon points="318.09 184.55 346.46 181.68 346.46 181.68 312.37 194.16 318.09 184.55" style="opacity:0.4"></polygon><path d="M354.45,181.48c0,.14-7.42,1-16.6,1.81s-16.65,1.43-16.66,1.29,7.42-1,16.61-1.81S354.44,181.34,354.45,181.48Z" style="fill:#263238"></path><path d="M361.79,163.87c-.09,0-.2-1.11-.68-2.82a20.32,20.32,0,0,0-7.82-11.12c-1.46-1-2.47-1.5-2.43-1.59a2.35,2.35,0,0,1,.75.26,12.85,12.85,0,0,1,1.88,1,18.57,18.57,0,0,1,8,11.34,12.27,12.27,0,0,1,.32,2.12A2.35,2.35,0,0,1,361.79,163.87Z" style="fill:#263238"></path><path d="M306.18,218.31a7.4,7.4,0,0,1,1.47-.29c1-.15,2.31-.4,4-.77s3.65-.89,5.81-1.58a61.31,61.31,0,0,0,13.34-6.2c1.92-1.21,3.6-2.37,5-3.42s2.44-1.93,3.16-2.56a9.33,9.33,0,0,1,1.17-.94,7.49,7.49,0,0,1-1,1.09c-.69.68-1.73,1.61-3.07,2.7a54.54,54.54,0,0,1-4.93,3.53,60.6,60.6,0,0,1-6.52,3.57,59.58,59.58,0,0,1-6.93,2.68,56.42,56.42,0,0,1-5.88,1.49c-1.7.32-3.08.53-4.05.61A9.19,9.19,0,0,1,306.18,218.31Z" style="fill:#263238"></path><path d="M310.15,211.41c0-.17,3.53-.21,7.74-1.2s7.42-2.49,7.48-2.34a8.16,8.16,0,0,1-2,1.09,31.5,31.5,0,0,1-10.86,2.53A8.88,8.88,0,0,1,310.15,211.41Z" style="fill:#263238"></path><path d="M350,243.59a9.21,9.21,0,0,1-1.36.65c-.88.39-2.19.9-3.81,1.49a88.67,88.67,0,0,1-26.46,5.1c-1.73.06-3.13.07-4.09,0a10,10,0,0,1-1.5-.09,7.18,7.18,0,0,1,1.5-.11c1,0,2.36-.09,4.07-.2a107,107,0,0,0,13.35-1.68,105.71,105.71,0,0,0,13-3.4c1.63-.54,2.95-1,3.86-1.33A7.07,7.07,0,0,1,350,243.59Z" style="fill:#263238"></path><path d="M384.72,191.13,363.86,184c-3,11.73-11,21.4-21.1,30.22l25.82,13.94a288.65,288.65,0,0,0,13.66-27.38A30.69,30.69,0,0,0,384.72,191.13Z" style="fill:#f5f5f5"></path><polygon points="368.48 181.68 366.72 187.25 369.57 188.6 371.24 182.69 368.48 181.68" style="fill:#e0e0e0"></polygon><path d="M364.15,210.08a28.54,28.54,0,0,1,3.83-.14l4.88-9.75-5.61-2.8-1.2,2.41,2.59,1.3Z" style="fill:#B9AA87"></path><path d="M379.53,206.8l.14,0c.41-1.16.87-2.3,1.37-3.42a8.11,8.11,0,0,0-1.44-.93,6.76,6.76,0,0,0-6.37-.16l1.49,2.5a3.56,3.56,0,0,1,3.34.05C379.13,205.34,379.6,206,379.53,206.8Z" style="fill:#B9AA87"></path><path d="M370,209.43c-1.35.22-2.45.15-3.77.48l-.82,1.6,3,1.5,1.83-3.65Z" style="fill:#B9AA87"></path><path d="M378,210.22h-.18l-6.35,1.92-1,2,4.37,2.18a3.25,3.25,0,0,1,.15-.4,16.52,16.52,0,0,1,1.14-2l-.21-.1.34-.11Z" style="fill:#B9AA87"></path><path d="M376.18,208.09a3.12,3.12,0,0,1-.83.3c-.55.17-1.34.37-2.33.6a67.57,67.57,0,0,1-7.84,1.29,66,66,0,0,1-7.92.34c-1,0-1.84-.06-2.41-.11a2.92,2.92,0,0,1-.87-.12,26.42,26.42,0,0,1,3.27-.14c2-.05,4.81-.18,7.88-.49s5.82-.77,7.81-1.13A25.77,25.77,0,0,1,376.18,208.09Z" style="fill:#263238"></path><path d="M327.13,276.37c-.55,1.65-43.49,66.1-80.38,79.32l-16-2.48-84.8-25,9.36-23.68h0l79.29,17.07,36.45-41.29,11-28.48Z" style="fill:#ffbe9d"></path><polygon points="150.94 329.65 186.27 340.06 194.59 312.93 155.71 303.73 150.94 329.65" style="fill:#455a64"></polygon><path d="M152.32,329.36l-.65.11s-20.63,21.73-25.52,20l21.38-49.92,13.08,5.53-1.21,1.65C154.57,313.34,152.52,321.17,152.32,329.36Z" style="fill:#B9AA87"></path><g style="opacity:0.6000000000000001"><path d="M155.69,309.78a2.22,2.22,0,0,0-1.72-2.41,2.14,2.14,0,0,0-2.4,1.69,2.33,2.33,0,0,0,1.84,2.54,2.22,2.22,0,0,0,2.3-2" style="fill:#fff"></path></g><g style="opacity:0.6000000000000001"><path d="M147.53,299.53l4,1.87-22,47.16s-1.92,1.81-3.37.89Z" style="fill:#fff"></path></g><path d="M151.58,330.39c-.24-.11.17-1.38-.1-2.91s-1-2.61-.83-2.8,1.45.79,1.74,2.65S151.78,330.54,151.58,330.39Z" style="fill:#263238"></path><path d="M147.17,334.7c-.26-.05-.22-1.28-.9-2.55s-1.66-2-1.55-2.21,1.56.2,2.37,1.79S147.41,334.79,147.17,334.7Z" style="fill:#263238"></path><path d="M139.63,335c.05-.24,1.41-.06,2.48,1.14s1.11,2.56.86,2.58-.66-1-1.55-2S139.55,335.24,139.63,335Z" style="fill:#263238"></path><path d="M152,329.91a5.07,5.07,0,0,1,1.09-2.49,12.49,12.49,0,0,1,1.92-2.28,12.11,12.11,0,0,1,1.38-1.1,3.2,3.2,0,0,1,.91-.51,1.14,1.14,0,0,1,1.34.45,1.41,1.41,0,0,1,.1,1.3,3.06,3.06,0,0,1-.53.88,9.67,9.67,0,0,1-1.2,1.33,9.49,9.49,0,0,1-2.5,1.66,4.56,4.56,0,0,1-2.66.6c0-.15,1-.38,2.36-1.18a11.17,11.17,0,0,0,2.22-1.69,11,11,0,0,0,1.05-1.25c.37-.47.56-.92.39-1.15s-.1-.11-.31-.07a2.66,2.66,0,0,0-.66.37,14.23,14.23,0,0,0-1.32,1,14.58,14.58,0,0,0-2,2C152.55,329.06,152.08,330,152,329.91Z" style="fill:#263238"></path><path d="M151.74,329.44a4.36,4.36,0,0,1,2.7.38,8.83,8.83,0,0,1,2.59,1.51,9,9,0,0,1,1.24,1.29,2.22,2.22,0,0,1,.58,2.13,1.25,1.25,0,0,1-1.14.75,3.56,3.56,0,0,1-1-.14,5.92,5.92,0,0,1-1.68-.72,6.17,6.17,0,0,1-2.13-2.17c-.87-1.53-.73-2.67-.64-2.66a23.36,23.36,0,0,0,1.19,2.3,6.15,6.15,0,0,0,2,1.8,5.35,5.35,0,0,0,1.46.57c.57.15,1.08.14,1.11-.08a1.58,1.58,0,0,0-.44-1.23,9.06,9.06,0,0,0-1.09-1.2,10,10,0,0,0-2.29-1.55C152.74,329.72,151.72,329.59,151.74,329.44Z" style="fill:#263238"></path><path d="M190.37,312.67a3.52,3.52,0,0,1-.22,1c-.22.75-.49,1.66-.8,2.73l-2.71,9c-1,3.45-2,6.57-2.69,9-.33,1.06-.61,2-.85,2.72a3.56,3.56,0,0,1-.37,1,4.23,4.23,0,0,1,.18-1c.15-.66.38-1.61.68-2.77.6-2.33,1.49-5.54,2.55-9.05s2.08-6.68,2.86-9c.39-1.14.71-2.06.95-2.69A4.41,4.41,0,0,1,190.37,312.67Z" style="fill:#fafafa"></path><path d="M187.12,312.67a4.4,4.4,0,0,1-.23,1c-.22.75-.48,1.66-.8,2.73l-2.71,9c-1,3.45-2,6.57-2.69,9l-.84,2.72a4.61,4.61,0,0,1-.37,1,3.86,3.86,0,0,1,.17-1c.15-.66.38-1.61.69-2.77.6-2.33,1.49-5.54,2.54-9.05s2.08-6.68,2.86-9c.39-1.14.72-2.06,1-2.69A4.41,4.41,0,0,1,187.12,312.67Z" style="fill:#fafafa"></path><path d="M333.85,274c1.65,1.1,58.26,58.6,59.36,63s20.93,92.5,20.93,92.5L394.87,435s-27-52.86-27-54.51-9.14-26-9.14-26L324.39,324.3l-35.8-32.48Z" style="fill:#ffbe9d"></path><polygon points="420.73 435.84 408.57 401.08 381.68 410.14 396.89 447.08 420.73 435.84" style="fill:#455a64"></polygon><path d="M419.69,434.89l.47.46s29.68,4.09,31.11,9.08l-53,11.75-3.15-13.84h2.05C405.36,442.41,412.91,439.51,419.69,434.89Z" style="fill:#B9AA87"></path><g style="opacity:0.6000000000000001"><path d="M401.82,443.57a2.22,2.22,0,0,0-.95,2.81,2.13,2.13,0,0,0,2.77,1,2.34,2.34,0,0,0,1-3,2.22,2.22,0,0,0-3-.69" style="fill:#fff"></path></g><g style="opacity:0.6000000000000001"><path d="M398.26,456.18l-.81-4.32,51.13-9.65s2.59.5,2.69,2.22Z" style="fill:#fff"></path></g><path d="M421,434.89c.05.26-1.22.66-2.31,1.78s-1.53,2.35-1.79,2.3-.21-1.63,1.14-3S421,434.64,421,434.89Z" style="fill:#263238"></path><path d="M427,436c.11.23-.91.92-1.55,2.21s-.63,2.51-.89,2.55-.75-1.38.07-3S427,435.71,427,436Z" style="fill:#263238"></path><path d="M431.66,441.91c-.22.11-.87-1.11-.52-2.67s1.44-2.4,1.59-2.21-.42,1.12-.69,2.41S431.91,441.83,431.66,441.91Z" style="fill:#263238"></path><path d="M420.35,434.87a5.21,5.21,0,0,1-2.66.57,11.91,11.91,0,0,1-3-.24,11.74,11.74,0,0,1-1.7-.47,3.13,3.13,0,0,1-.94-.44,1.17,1.17,0,0,1-.43-1.35,1.51,1.51,0,0,1,1-.85,3.38,3.38,0,0,1,1-.08,9.15,9.15,0,0,1,1.78.2,9.87,9.87,0,0,1,2.8,1.06c1.49.87,2.12,1.74,2,1.81s-.87-.56-2.33-1.23a11.26,11.26,0,0,0-2.67-.8,9.42,9.42,0,0,0-1.63-.14c-.59,0-1.07.08-1.16.36,0,.11,0,.15.13.29a2.63,2.63,0,0,0,.69.32,11,11,0,0,0,1.58.49,14.24,14.24,0,0,0,2.78.42A19.34,19.34,0,0,1,420.35,434.87Z" style="fill:#263238"></path><path d="M420.09,435.31c-.08.06-.8-.75-1.27-2.41a8.84,8.84,0,0,1-.28-3,9.58,9.58,0,0,1,.32-1.77,2.24,2.24,0,0,1,1.4-1.71,1.27,1.27,0,0,1,1.27.49,3.76,3.76,0,0,1,.49.92,6.09,6.09,0,0,1,.4,1.78,6.26,6.26,0,0,1-.53,3c-.73,1.6-1.74,2.15-1.78,2.07a24.06,24.06,0,0,0,1.17-2.31,6.15,6.15,0,0,0,.29-2.68,5.67,5.67,0,0,0-.39-1.52c-.21-.55-.52-1-.72-.85s-.62.58-.73,1.07a8.54,8.54,0,0,0-.34,1.59,9.92,9.92,0,0,0,.07,2.76C419.73,434.33,420.22,435.24,420.09,435.31Z" style="fill:#263238"></path><path d="M383.93,413.72a4.11,4.11,0,0,1,1-.42l2.69-.94,8.88-3.05,8.89-3.06,2.7-.91a4.74,4.74,0,0,1,1-.27,3.59,3.59,0,0,1-.94.46c-.62.27-1.53.63-2.65,1.06-2.24.87-5.36,2-8.84,3.21S390,412,387.7,412.71l-2.74.79A4.64,4.64,0,0,1,383.93,413.72Z" style="fill:#fafafa"></path><path d="M385.83,416.36a4.14,4.14,0,0,1,1-.41l2.68-.95,8.89-3.05,8.88-3.06c1.06-.35,2-.65,2.7-.91a3.82,3.82,0,0,1,1-.26,4.33,4.33,0,0,1-.94.45c-.62.27-1.53.63-2.65,1.07-2.25.86-5.37,2-8.84,3.21s-6.64,2.2-8.94,2.9c-1.16.35-2.09.62-2.74.79A4.64,4.64,0,0,1,385.83,416.36Z" style="fill:#fafafa"></path><path d="M282.12,251.78s-30.25,38-37.48,41c-2.31,1,6,10.69,6,10.69l4.11-4.65c13.06,6.87,23.17,15.87,33.57,28.52l18-16.94,15.16,20.07,43.15-26.7-21.19-22.82s-28.55-25.73-54.31-32.63C289.15,248.28,286.17,248.26,282.12,251.78Z" style="fill:#263238"></path><path d="M328.42,286a2.66,2.66,0,0,1-.35.47L327,287.77c-.95,1.11-2.34,2.69-4.07,4.64-3.47,3.89-8.32,9.21-13.82,15s-10.59,10.85-14.42,14.4c-1.92,1.76-3.48,3.18-4.61,4.11L288.78,327a2,2,0,0,1-.48.34,2.67,2.67,0,0,1,.41-.42l1.23-1.15c1.08-1,2.6-2.43,4.49-4.22,3.75-3.61,8.81-8.73,14.3-14.49s10.38-11,13.91-14.86l4.2-4.53,1.15-1.22A3.15,3.15,0,0,1,328.42,286Z" style="fill:#455a64"></path><path d="M288.66,326.7s-.16-.12-.42-.39l-1.1-1.19c-.95-1-2.35-2.52-4.12-4.31s-3.93-3.87-6.4-6.09-5.3-4.55-8.36-6.88-6.08-4.37-8.88-6.18-5.39-3.3-7.6-4.51-4-2.16-5.27-2.79l-1.44-.74a3,3,0,0,1-.49-.29,2.07,2.07,0,0,1,.53.19l1.49.66c1.29.57,3.12,1.47,5.36,2.65s4.84,2.66,7.68,4.43,5.86,3.85,8.94,6.17,5.87,4.7,8.36,6.93,4.62,4.35,6.35,6.19,3.1,3.35,4,4.44l1,1.25A2.4,2.4,0,0,1,288.66,326.7Z" style="fill:#455a64"></path><path d="M305.29,253.58a4.1,4.1,0,0,1-.4.52l-1.22,1.44-4.53,5.27c-3.82,4.45-9.05,10.63-14.69,17.57s-10.61,13.35-14.18,18l-4.22,5.52-1.16,1.49a4.52,4.52,0,0,1-.43.5,3.31,3.31,0,0,1,.35-.57c.28-.39.64-.91,1.08-1.55.95-1.34,2.34-3.26,4.09-5.61,3.49-4.72,8.42-11.15,14.07-18.1S295,265,298.86,260.57c1.95-2.2,3.54-4,4.66-5.16l1.29-1.38A2.57,2.57,0,0,1,305.29,253.58Z" style="fill:#fafafa"></path><path d="M302,253.38a4.17,4.17,0,0,1-.4.5l-1.23,1.39-4.57,5c-3.85,4.26-9.13,10.19-14.82,16.85S270.24,290,266.62,294.45l-4.27,5.29c-.48.59-.87,1.07-1.18,1.43a3.15,3.15,0,0,1-.43.48,2.23,2.23,0,0,1,.35-.54l1.1-1.49c1-1.29,2.37-3.14,4.14-5.4,3.55-4.53,8.54-10.71,14.24-17.38s11-12.57,14.95-16.77c2-2.11,3.56-3.79,4.69-4.94l1.3-1.32A2.33,2.33,0,0,1,302,253.38Z" style="fill:#fafafa"></path><path d="M336.19,320c-.12.08-3.88-5-8.4-11.38s-8.09-11.59-8-11.68,3.87,5,8.4,11.38S336.31,320,336.19,320Z" style="fill:#455a64"></path><path d="M387.24,209.16c-.11,1.15-2.1,3.92-4.56,5.36a86.21,86.21,0,0,1-8.5,4.58c-5.55,2.69-48.92,18.24-48.92,18.24l3.82-8.51-.94-5.56c11.95-2.59,44.77-12.38,53.23-18,1.74-1.16,2.9-3.7,1.35-5.46l.19-.6s.81-.18,3.38,4.2A9.16,9.16,0,0,1,387.24,209.16Z" style="fill:#B9AA87"></path><g style="opacity:0.30000000000000004"><path d="M387.24,209.16c-.11,1.15-2.1,3.92-4.56,5.36a86.21,86.21,0,0,1-8.5,4.58c-5.55,2.69-48.92,18.24-48.92,18.24l3.82-8.51-.94-5.56c11.95-2.59,44.77-12.38,53.23-18,1.74-1.16,2.9-3.7,1.35-5.46l.19-.6s.81-.18,3.38,4.2A9.16,9.16,0,0,1,387.24,209.16Z"></path></g><path d="M262,229.11l42.07-5.17,5.15,2.79-9.82,11.44s-53.23,4.46-66,12.08c-12.24,7.28-15.68,25.64-35.1,27.44s-68.46-18.61-78.21-14l-5.78-15.23s29.24.54,50.86,8.34,28.45,9.56,39.51,0,20.5-18.7,39.69-23.27C256.08,230.7,262,229.11,262,229.11Z" style="fill:#B9AA87"></path><g style="opacity:0.30000000000000004"><path d="M262,229.11l42.07-5.17,5.15,2.79-9.82,11.44s-53.23,4.46-66,12.08c-12.24,7.28-15.68,25.64-35.1,27.44s-68.46-18.61-78.21-14l-5.78-15.23s29.24.54,50.86,8.34,28.45,9.56,39.51,0,20.5-18.7,39.69-23.27C256.08,230.7,262,229.11,262,229.11Z"></path></g><path d="M225.17,129.93c0,.14-16.17.26-36.11.26s-36.11-.12-36.11-.26,16.16-.26,36.11-.26S225.17,129.79,225.17,129.93Z" style="fill:#455a64"></path><path d="M178.52,147.13c0,.14-7.89.26-17.61.26s-17.61-.12-17.61-.26,7.88-.26,17.61-.26S178.52,147,178.52,147.13Z" style="fill:#455a64"></path><path d="M202.3,138.78c0,.14-32.34.26-72.24.26s-72.24-.12-72.24-.26,32.34-.26,72.24-.26S202.3,138.63,202.3,138.78Z" style="fill:#455a64"></path><path d="M331.37,383.27c0,.15-16.16.26-36.11.26s-36.11-.11-36.11-.26,16.17-.26,36.11-.26S331.37,383.13,331.37,383.27Z" style="fill:#455a64"></path><path d="M308.51,392.12c0,.14-32.35.26-72.24.26s-72.25-.12-72.25-.26,32.34-.26,72.25-.26S308.51,392,308.51,392.12Z" style="fill:#455a64"></path></g></svg>